<svg width="170" height="170" xmlns="http://www.w3.org/2000/svg" xmlns:xlink="http://www.w3.org/1999/xlink" overflow="hidden"><defs><clipPath id="clip0"><rect x="280" y="142" width="170" height="170"/></clipPath></defs><g clip-path="url(#clip0)" transform="translate(-280 -142)"><path d="M282.5 154.491C282.5 148.973 286.973 144.5 292.491 144.5L437.509 144.5C443.027 144.5 447.5 148.973 447.5 154.491L447.5 299.509C447.5 305.027 443.027 309.5 437.509 309.5L292.491 309.5C286.973 309.5 282.5 305.027 282.5 299.509Z" stroke="#4B4B4B" stroke-width="4.58333" stroke-miterlimit="8" fill="none" fill-rule="evenodd"/><path d="M361.8 245.228C363.163 245.228 364.096 245.574 364.6 246.264 365.104 246.954 365.356 248.234 365.356 250.105 365.356 250.595 365.222 253.279 364.956 258.155 364.689 263.031 364.556 267.662 364.556 272.047 364.556 276.157 364.756 279.561 365.156 282.26 365.556 284.959 366.171 287.182 367 288.93 365.756 289.635 364.571 290.157 363.445 290.494 362.319 290.831 361.237 291 360.2 291 358.748 291 357.763 290.594 357.245 289.781 356.726 288.968 356.467 287.335 356.467 284.882 356.467 283.471 356.6 280.312 356.867 275.406 357.133 270.499 357.267 266.282 357.267 262.755 357.267 258.922 357.089 255.809 356.733 253.417 356.378 251.025 355.8 248.985 355 247.299 356.096 246.624 357.222 246.11 358.378 245.757 359.533 245.405 360.674 245.228 361.8 245.228ZM361.356 226C362.896 226 364.163 226.491 365.156 227.472 366.148 228.453 366.645 229.695 366.645 231.198 366.645 232.946 366.052 234.403 364.867 235.568 363.682 236.734 362.185 237.316 360.378 237.316 358.807 237.316 357.563 236.856 356.645 235.936 355.726 235.016 355.267 233.774 355.267 232.21 355.267 230.493 355.859 229.028 357.045 227.817 358.23 226.605 359.667 226 361.356 226Z" fill="#4B4B4B" fill-rule="evenodd"/><path d="M361.93 161C375.4 161 385.946 164.268 393.568 170.804 401.189 177.339 405 186.367 405 197.887 405 211.197 400.48 222.031 391.441 230.387 386.921 234.565 381.722 237.699 375.844 239.788L372.947 240.518 372.947 226.004 374.362 225.354C376.007 224.374 377.52 223.232 378.901 221.926 384.425 216.704 387.187 209.466 387.187 200.215 387.187 191.859 384.765 185.502 379.92 181.145 375.076 176.787 367.986 174.609 358.651 174.609 356.82 174.609 354.914 174.713 352.935 174.922 350.956 175.131 348.755 175.504 346.333 176.041 345.86 184.278 345.506 192.232 345.269 199.901 345.033 207.571 344.915 215.017 344.915 222.24L344.915 229.044C344.914 229.047 344.914 229.051 344.913 229.054 344.834 233.472 344.949 237.889 344.87 242.307L344.93 242.295C344.989 253.635 345.316 262.633 346.244 269.96 347.172 277.287 348.607 282.495 350.498 286.255 347.662 287.807 345.033 288.986 342.611 289.791 340.188 290.597 337.973 291 335.964 291 332.774 291 330.558 290.105 329.317 288.314 328.077 286.524 327.456 283.091 327.456 278.018 327.456 274.914 327.767 266.871 328.387 253.889 329.007 240.907 329.317 229.432 329.317 219.464 329.317 202.931 328.889 190.128 328.032 181.055 327.176 171.982 325.832 165.894 324 162.791L327.811 162.791C331.474 162.791 337.101 162.492 344.693 161.895 352.285 161.298 358.031 161 361.93 161Z" fill="#DB3B6D" fill-rule="evenodd"/></g></svg>